<svg width="20" height="20" viewBox="0 0 20 20" fill="none" xmlns="http://www.w3.org/2000/svg">
<path d="M7.49993 10.0001C7.49993 8.62184 8.6216 7.50017 9.9999 7.50017H13.3332V0.833556C13.3332 0.373561 12.9607 0.000244141 12.4999 0.000244141H0.833312C0.372496 0.000244141 0 0.373561 0 0.833556V19.1667C0 19.6267 0.372496 20 0.833312 20H12.4999C12.9607 20 13.3332 19.6267 13.3332 19.1667V13.3334V12.5001H9.9999C8.6216 12.5001 7.49993 11.3785 7.49993 10.0001Z" fill="white"/>
<path d="M19.8127 10.5268C19.8153 10.5238 19.8174 10.5204 19.8199 10.5173C19.8342 10.4993 19.848 10.4809 19.8608 10.4616C19.8668 10.4527 19.8719 10.4433 19.8775 10.4341C19.886 10.4203 19.8946 10.4066 19.9022 10.3923C19.9085 10.3806 19.9138 10.3685 19.9194 10.3566C19.9253 10.3442 19.9315 10.332 19.9368 10.3193C19.9424 10.3056 19.947 10.2917 19.9519 10.2778C19.956 10.2663 19.9605 10.255 19.964 10.2432C19.969 10.2269 19.9728 10.2104 19.9767 10.1938C19.979 10.1841 19.9818 10.1747 19.9838 10.1649C19.9884 10.1422 19.9916 10.1193 19.9943 10.0964C19.9947 10.0924 19.9956 10.0886 19.996 10.0846C20.0016 10.0286 20.0016 9.97212 19.996 9.9161C19.9956 9.91212 19.9947 9.90829 19.9943 9.90435C19.9916 9.88142 19.9884 9.85856 19.9838 9.83587C19.9819 9.82606 19.9791 9.81657 19.9767 9.80689C19.9728 9.79036 19.969 9.7738 19.964 9.75751C19.9605 9.74575 19.956 9.73443 19.9519 9.7229C19.947 9.70903 19.9424 9.69505 19.9368 9.68142C19.9315 9.66872 19.9253 9.65654 19.9194 9.64415C19.9138 9.6322 19.9085 9.62013 19.9022 9.60837C19.8945 9.59407 19.886 9.5804 19.8775 9.56661C19.8719 9.55743 19.8668 9.54806 19.8608 9.53908C19.848 9.51986 19.8342 9.50146 19.8199 9.48341C19.8174 9.48029 19.8153 9.47701 19.8127 9.47388C19.794 9.45087 19.774 9.42892 19.7529 9.40806L16.4227 6.07786C16.0969 5.75204 15.5703 5.75204 15.2444 6.07786C14.9186 6.40368 14.9186 6.93035 15.2444 7.25617L17.1552 9.16697H10.0003C9.53949 9.16697 9.16699 9.54029 9.16699 10.0003C9.16699 10.4603 9.53949 10.8336 10.0003 10.8336H17.1552L15.2444 12.7444C14.9186 13.0702 14.9186 13.5969 15.2444 13.9227C15.4069 14.0852 15.6203 14.1669 15.8336 14.1669C16.0469 14.1669 16.2603 14.0852 16.4228 13.9227L19.753 10.5925C19.774 10.5718 19.794 10.5498 19.8127 10.5268Z" fill="white"/>
</svg>
