<svg width="20" height="20" viewBox="0 0 20 20" fill="none" xmlns="http://www.w3.org/2000/svg">
<path d="M19.4013 12.1917L17.563 10.7542C17.5863 10.5325 17.6063 10.2734 17.6063 9.99918C17.6063 9.725 17.5871 9.46586 17.563 9.24418L19.403 7.80586C19.7447 7.53586 19.838 7.05668 19.6205 6.65754L17.7088 3.35C17.5046 2.97668 17.0571 2.785 16.603 2.9525L14.4338 3.82332C14.018 3.52332 13.5821 3.27 13.1313 3.0675L12.8013 0.76668C12.7471 0.33 12.3671 0 11.918 0H8.08468C7.6355 0 7.25636 0.33 7.203 0.76L6.87218 3.06918C6.4355 3.26586 6.00636 3.51586 5.57218 3.825L3.39718 2.95168C2.98964 2.79418 2.50214 2.97082 2.29964 3.3425L0.385497 6.65418C0.159677 7.03586 0.252997 7.53168 0.602177 7.80836L2.4405 9.24586C2.41132 9.52668 2.39718 9.77086 2.39718 10C2.39718 10.2292 2.41136 10.4734 2.4405 10.755L0.600497 12.1934C0.258818 12.4642 0.166318 12.9434 0.383818 13.3417L2.2955 16.6492C2.49968 17.0217 2.943 17.215 3.40132 17.0467L5.5705 16.1759C5.9855 16.475 6.42132 16.7284 6.87218 16.9317L7.20218 19.2317C7.25632 19.67 7.6355 20 8.0855 20H11.9188C12.368 20 12.748 19.67 12.8013 19.24L13.1321 16.9317C13.5688 16.7342 13.9971 16.485 14.4321 16.175L16.6071 17.0483C16.7121 17.0891 16.8213 17.11 16.9338 17.11C17.2571 17.11 17.5546 16.9333 17.7046 16.6583L19.6246 13.3333C19.838 12.9433 19.7446 12.4642 19.4013 12.1917ZM10.0013 13.3333C8.163 13.3333 6.668 11.8383 6.668 10C6.668 8.16168 8.163 6.66668 10.0013 6.66668C11.8396 6.66668 13.3346 8.16168 13.3346 10C13.3346 11.8383 11.8396 13.3333 10.0013 13.3333Z" fill="white"/>
</svg>
