<svg width="18" height="16" viewBox="0 0 18 16" fill="none" xmlns="http://www.w3.org/2000/svg">
<path d="M9.00047 0.499999C9.15422 0.499999 9.30122 0.563 9.40697 0.674L13.3445 4.799C13.6857 5.156 13.4322 5.75 12.938 5.75L10.8755 5.75L10.8755 10.0625C10.8755 10.5793 10.4547 11 9.93797 11L8.06297 11C7.54622 11 7.12547 10.5793 7.12547 10.0625L7.12547 5.75L5.06297 5.75C4.56872 5.75 4.31522 5.156 4.65647 4.799L8.59397 0.674C8.69972 0.563 8.84672 0.499999 9.00047 0.499999Z" fill="#3744BD"/>
<path d="M16.6875 15.5H1.3125C0.58875 15.5 0 14.9112 0 14.1875V13.8125C0 13.0887 0.58875 12.5 1.3125 12.5H16.6875C17.4112 12.5 18 13.0887 18 13.8125V14.1875C18 14.9112 17.4112 15.5 16.6875 15.5Z" fill="#3744BD"/>
</svg>
